<?xml version="1.0" encoding="UTF-8"?>
<svg id="Layer_1" xmlns="http://www.w3.org/2000/svg" version="1.1" viewBox="0 0 1333.57 1538.99">
  <!-- Generator: Adobe Illustrator 29.1.0, SVG Export Plug-In . SVG Version: 2.1.0 Build 142)  -->
  <defs>
    <style>
      .st0 {
        fill: #ff424d;
      }

      .st1 {
        fill: #dcf4ff;
      }

      .st2 {
        fill: #fff;
      }

      .st3 {
        fill: #aac9f8;
      }
    </style>
  </defs>
  <path class="st1" d="M1174.26,1538.99s240.88-429.26,130.24-962.53c-60.46-291.43-168.17-404.33-354.9-373.22C747.7,236.88,619.38-113.05,255.95,38.06,164.35,72.72,77.83,163.21,30.38,315.66-11.85,451.36-15.43,719.74,54.26,906.25c69.7,186.51,203.58,383.58,64.51,632.74h1055.49Z"/>
  <g>
    <polygon class="st2" points="201.84 212.16 201.84 1535.35 1187.26 1535.35 1187.26 429.9 975.1 212.16 201.84 212.16"/>
    <polygon class="st3" points="1187.26 430.31 976.34 212.16 976.34 430.31 1187.26 430.31"/>
    <path class="st3" d="M1086.12,613.35H445.35c-4.98,0-9.02-5-9.02-11.17h0c0-6.17,4.04-11.17,9.02-11.17h640.77c4.98,0,9.02,5,9.02,11.17h0c0,6.17-4.04,11.17-9.02,11.17Z"/>
    <path class="st3" d="M1086.12,711.05H445.35c-4.98,0-9.02-5-9.02-11.17h0c0-6.17,4.04-11.17,9.02-11.17h640.77c4.98,0,9.02,5,9.02,11.17h0c0,6.17-4.04,11.17-9.02,11.17Z"/>
    <path class="st3" d="M1086.12,808.76H445.35c-4.98,0-9.02-5-9.02-11.17h0c0-6.17,4.04-11.17,9.02-11.17h640.77c4.98,0,9.02,5,9.02,11.17h0c0,6.17-4.04,11.17-9.02,11.17Z"/>
    <path class="st3" d="M1086.12,1004.17H445.35c-4.98,0-9.02-5-9.02-11.17h0c0-6.17,4.04-11.17,9.02-11.17h640.77c4.98,0,9.02,5,9.02,11.17h0c0,6.17-4.04,11.17-9.02,11.17Z"/>
    <path class="st3" d="M1086.12,1101.87H445.35c-4.98,0-9.02-5-9.02-11.17h0c0-6.17,4.04-11.17,9.02-11.17h640.77c4.98,0,9.02,5,9.02,11.17h0c0,6.17-4.04,11.17-9.02,11.17Z"/>
    <path class="st3" d="M1086.12,906.46H445.35c-4.98,0-9.02-5-9.02-11.17h0c0-6.17,4.04-11.17,9.02-11.17h640.77c4.98,0,9.02,5,9.02,11.17h0c0,6.17-4.04,11.17-9.02,11.17Z"/>
    <path class="st3" d="M1086.12,1197.72H445.35c-4.98,0-9.02-5-9.02-11.17h0c0-6.17,4.04-11.17,9.02-11.17h640.77c4.98,0,9.02,5,9.02,11.17h0c0,6.17-4.04,11.17-9.02,11.17Z"/>
    <path class="st3" d="M1086.12,1295.43H445.35c-4.98,0-9.02-5-9.02-11.17h0c0-6.17,4.04-11.17,9.02-11.17h640.77c4.98,0,9.02,5,9.02,11.17h0c0,6.17-4.04,11.17-9.02,11.17Z"/>
    <path class="st3" d="M1086.12,1392.79H445.35c-4.98,0-9.02-5-9.02-11.17h0c0-6.17,4.04-11.17,9.02-11.17h640.77c4.98,0,9.02,5,9.02,11.17h0c0,6.17-4.04,11.17-9.02,11.17Z"/>
    <path class="st3" d="M389.55,613.35h-91.18v-85.44h91.18v85.44ZM307.29,604.43h73.34v-67.61h-73.34v67.61Z"/>
    <path class="st3" d="M389.55,711.05h-91.18v-85.44h91.18v85.44ZM307.29,702.14h73.34v-67.61h-73.34v67.61Z"/>
    <path class="st3" d="M1086.12,516.36H445.35c-4.98,0-9.02-5-9.02-11.17h0c0-6.17,4.04-11.17,9.02-11.17h640.77c4.98,0,9.02,5,9.02,11.17h0c0,6.17-4.04,11.17-9.02,11.17Z"/>
    <path class="st3" d="M389.55,516.36h-91.18v-85.44h91.18v85.44ZM307.29,507.44h73.34v-67.61h-73.34v67.61Z"/>
    <path class="st3" d="M389.55,808.76h-91.18v-85.44h91.18v85.44ZM307.29,799.84h73.34v-67.61h-73.34v67.61Z"/>
    <path class="st3" d="M389.55,906.46h-91.18v-85.44h91.18v85.44ZM307.29,897.55h73.34v-67.61h-73.34v67.61Z"/>
    <path class="st3" d="M389.55,1004.17h-91.18v-85.44h91.18v85.44ZM307.29,995.25h73.34v-67.61h-73.34v67.61Z"/>
    <path class="st3" d="M389.55,1101.87h-91.18v-85.44h91.18v85.44ZM307.29,1092.96h73.34v-67.61h-73.34v67.61Z"/>
    <path class="st3" d="M389.55,1197.72h-91.18v-85.44h91.18v85.44ZM307.29,1188.81h73.34v-67.61h-73.34v67.61Z"/>
    <path class="st3" d="M389.55,1295.43h-91.18v-85.44h91.18v85.44ZM307.29,1286.51h73.34v-67.61h-73.34v67.61Z"/>
    <path class="st3" d="M389.55,1392.79h-91.18v-85.44h91.18v85.44ZM307.29,1383.87h73.34v-67.61h-73.34v67.61Z"/>
    <path class="st0" d="M342.19,596.59l-2.72-5.13c-7-13.19-21.11-38.47-21.25-38.73-.84-1.5-.3-3.41,1.2-4.25,1.51-.84,3.41-.3,4.25,1.2.13.22,11.17,20.02,18.6,33.77,16.11-29.02,42.6-72.63,42.89-73.1.9-1.47,2.82-1.94,4.29-1.05,1.47.9,1.94,2.82,1.05,4.29-.3.49-29.97,49.33-45.51,77.89l-2.78,5.1Z"/>
    <path class="st0" d="M342.19,689.92l-2.72-5.13c-7-13.19-21.11-38.47-21.25-38.73-.84-1.5-.3-3.41,1.2-4.25,1.51-.84,3.41-.3,4.25,1.2.13.22,11.17,20.02,18.6,33.77,16.11-29.02,42.6-72.63,42.89-73.1.9-1.47,2.82-1.94,4.29-1.05,1.47.9,1.94,2.81,1.05,4.29-.3.49-29.97,49.33-45.51,77.89l-2.78,5.1Z"/>
    <path class="st0" d="M342.19,789.25l-2.72-5.13c-7-13.19-21.11-38.47-21.25-38.73-.84-1.5-.3-3.41,1.2-4.25,1.51-.84,3.41-.3,4.25,1.2.13.22,11.17,20.02,18.6,33.77,16.11-29.02,42.6-72.63,42.89-73.1.9-1.47,2.82-1.94,4.29-1.05,1.47.9,1.94,2.82,1.05,4.29-.3.49-29.97,49.33-45.51,77.89l-2.78,5.1Z"/>
    <path class="st0" d="M342.19,888.43l-2.72-5.13c-7-13.19-21.11-38.47-21.25-38.73-.84-1.5-.3-3.41,1.2-4.25,1.51-.84,3.41-.3,4.25,1.2.13.22,11.17,20.02,18.6,33.77,16.11-29.02,42.6-72.63,42.89-73.1.9-1.47,2.82-1.94,4.29-1.05,1.47.9,1.94,2.82,1.05,4.29-.3.49-29.97,49.33-45.51,77.89l-2.78,5.1Z"/>
  </g>
</svg>